<svg width="756" height="562" viewBox="0 0 756 562" fill="none" xmlns="http://www.w3.org/2000/svg">
<mask id="mask0_204_3" style="mask-type:luminance" maskUnits="userSpaceOnUse" x="0" y="0" width="756" height="562">
<path d="M0 0H755.936V561.832H0V0Z" fill="white"/>
</mask>
<g mask="url(#mask0_204_3)">
<path fill-rule="evenodd" clip-rule="evenodd" d="M320.643 336.8H373.333L346.998 287.28L311.149 220.018L221.008 389.472L185.254 456.652L128.419 563.408H200.004L256.838 456.652L292.593 389.472L320.643 336.8ZM477.922 41.3351L442.092 -25.9268L406.338 41.3351L442.092 108.597L477.922 175.777L591.592 389.472L627.422 456.652L684.256 563.408H755.86L699.025 456.652L663.271 389.472L513.677 108.597L477.922 41.3351ZM499.078 456.652L555.912 563.408H627.516L570.681 456.652L534.927 389.472L449.552 229.083L413.722 161.883L377.967 94.6208L349.578 41.3351L313.748 -25.9268L277.994 41.3351L247.024 99.4501L92.6644 389.472L56.9096 456.652L0.0750542 563.408H71.6599L128.494 456.652L164.249 389.472L282.854 166.732L313.748 108.597L342.119 161.883L377.967 229.083L413.722 296.345L463.342 389.472H364.178L328.423 456.652H499.078Z" fill="#CE3C3C"/>
</g>
</svg>
