<svg width="193" height="12" viewBox="0 0 193 12" fill="none" xmlns="http://www.w3.org/2000/svg">
<path d="M0 11.4916L4.225 0.0756836H6.775L11 11.4916H7.7L7 9.25368H3.975L3.3 11.4916H0ZM5.5 3.34456L4.45 7.16663H6.5L5.5 3.34456Z" fill="#1E1E1E"/>
<path d="M33.4816 2.79136H30.2066V11.4916H27.1066V2.79136H23.8066V0.0756836H33.4816V2.79136Z" fill="#1E1E1E"/>
<path d="M56.2619 2.79136H52.9869V11.4916H49.8869V2.79136H46.5869V0.0756836H56.2619V2.79136Z" fill="#1E1E1E"/>
<path d="M78.2924 8.75077V11.4916H70.1924V0.0756836H78.1424V2.79136H73.3174V4.40065H77.4424V6.96546H73.3174V8.75077H78.2924Z" fill="#1E1E1E"/>
<path d="M95.665 5.88422V11.4916H92.54V0.0756836H94.965L99.54 5.88422V0.0756836H102.665V11.4916H100.165L95.665 5.88422Z" fill="#1E1E1E"/>
<path d="M126.249 2.79136H122.974V11.4916H119.874V2.79136H116.574V0.0756836H126.249V2.79136Z" fill="#1E1E1E"/>
<path d="M140.18 11.4916V0.0756836H143.305V11.4916H140.18Z" fill="#1E1E1E"/>
<path d="M162.874 11.5919C162.055 11.5919 161.312 11.4285 160.649 11.089C159.98 10.7559 159.405 10.3221 158.924 9.78148C158.455 9.24714 158.087 8.6248 157.824 7.92073C157.574 7.21667 157.449 6.50003 157.449 5.75825C157.449 5.00389 157.58 4.28725 157.849 3.59576C158.112 2.8917 158.487 2.28193 158.974 1.76016C159.474 1.22583 160.055 0.79836 160.724 0.477758C161.387 0.163444 162.124 0 162.924 0C163.737 0 164.48 0.16973 165.149 0.502904C165.812 0.842363 166.38 1.2824 166.849 1.8356C167.33 2.37622 167.699 2.99228 167.949 3.69634C168.212 4.38784 168.349 5.09819 168.349 5.83368C168.349 6.58804 168.205 7.31096 167.924 7.99617C167.655 8.68766 167.28 9.29743 166.799 9.83177C166.312 10.3535 165.737 10.781 165.074 11.1142C164.405 11.4348 163.674 11.5919 162.874 11.5919ZM160.599 5.78339C160.599 6.17314 160.637 6.55032 160.724 6.91492C160.824 7.26696 160.962 7.58756 161.149 7.87044C161.349 8.15961 161.587 8.38592 161.874 8.54936C162.174 8.71909 162.512 8.80081 162.899 8.80081C163.299 8.80081 163.637 8.71909 163.924 8.54936C164.205 8.36706 164.437 8.13447 164.624 7.8453C164.805 7.56241 164.937 7.24181 165.024 6.88978C165.124 6.52517 165.174 6.148 165.174 5.75825C165.174 5.37478 165.124 5.00389 165.024 4.65186C164.924 4.28725 164.78 3.96665 164.599 3.69634C164.412 3.43232 164.174 3.2123 163.874 3.04257C163.587 2.87912 163.255 2.79112 162.874 2.79112C162.487 2.79112 162.155 2.87912 161.874 3.04257C161.587 3.2123 161.349 3.4386 161.149 3.72149C160.962 4.01066 160.824 4.33754 160.724 4.70215C160.637 5.05418 160.599 5.41879 160.599 5.78339Z" fill="#1E1E1E"/>
<path d="M185.602 5.88422V11.4916H182.477V0.0756836H184.902L189.477 5.88422V0.0756836H192.602V11.4916H190.102L185.602 5.88422Z" fill="#1E1E1E"/>
</svg>
