<svg width="238" height="12" viewBox="0 0 238 12" fill="none" xmlns="http://www.w3.org/2000/svg">
<path d="M0 11.4914L4.225 0.0754395H6.775L11 11.4914H7.7L7 9.25343H3.975L3.3 11.4914H0ZM5.5 3.34431L4.45 7.16638H6.5L5.5 3.34431Z" fill="#1E1E1E"/>
<path d="M24.6318 11.4914V0.0754395H29.5318C30.0818 0.0754395 30.5881 0.194879 31.0568 0.427472C31.5193 0.647493 31.9193 0.942947 32.2568 1.30755C32.6068 1.67845 32.8693 2.10591 33.0568 2.58996C33.2568 3.06143 33.3568 3.53919 33.3568 4.02323C33.3568 4.52614 33.2631 5.02275 33.0818 5.5068C32.8943 5.97827 32.6381 6.39945 32.3068 6.76406C31.9881 7.13495 31.5943 7.4304 31.1318 7.64414C30.6631 7.86416 30.1568 7.97103 29.6068 7.97103H27.7568V11.4914H24.6318ZM27.7568 5.25535H29.4068C29.5881 5.25535 29.7631 5.17363 29.9318 5.0039C30.0943 4.82159 30.1818 4.49471 30.1818 4.02323C30.1818 3.55805 30.0818 3.23745 29.8818 3.06772C29.6943 2.88541 29.5131 2.79112 29.3318 2.79112H27.7568V5.25535Z" fill="#1E1E1E"/>
<path d="M47.3477 11.4914V0.0754395H52.2477C52.7977 0.0754395 53.3039 0.194879 53.7727 0.427472C54.2352 0.647493 54.6352 0.942947 54.9727 1.30755C55.3227 1.67845 55.5852 2.10591 55.7727 2.58996C55.9727 3.06143 56.0727 3.53919 56.0727 4.02323C56.0727 4.52614 55.9789 5.02275 55.7977 5.5068C55.6102 5.97827 55.3539 6.39945 55.0227 6.76406C54.7039 7.13495 54.3102 7.4304 53.8477 7.64414C53.3789 7.86416 52.8727 7.97103 52.3227 7.97103H50.4727V11.4914H47.3477ZM50.4727 5.25535H52.1227C52.3039 5.25535 52.4789 5.17363 52.6477 5.0039C52.8102 4.82159 52.8977 4.49471 52.8977 4.02323C52.8977 3.55805 52.7977 3.23745 52.5977 3.06772C52.4102 2.88541 52.2289 2.79112 52.0477 2.79112H50.4727V5.25535Z" fill="#1E1E1E"/>
<path d="M70.0645 11.4914V0.0754395H75.2895C75.8395 0.0754395 76.3457 0.194879 76.8145 0.427472C77.277 0.647493 77.677 0.942947 78.0145 1.30755C78.3645 1.67845 78.627 2.10591 78.8145 2.58996C79.0145 3.06143 79.1145 3.53919 79.1145 4.02323C79.1145 4.69587 78.9645 5.31821 78.6645 5.88398C78.377 6.45603 77.977 6.9275 77.4645 7.29211L80.0395 11.4914H76.5145L74.3645 7.97103H73.1895V11.4914H70.0645ZM73.1895 5.25535H75.1645C75.3457 5.25535 75.5207 5.14848 75.6895 4.92846C75.852 4.71473 75.9395 4.41298 75.9395 4.02323C75.9395 3.62091 75.8395 3.31917 75.6395 3.11801C75.452 2.90427 75.2645 2.79112 75.0645 2.79112H73.1895V5.25535Z" fill="#1E1E1E"/>
<path d="M98.6604 11.5919C97.8416 11.5919 97.0979 11.4285 96.4354 11.089C95.7666 10.7559 95.1916 10.3221 94.7104 9.78148C94.2416 9.24714 93.8729 8.6248 93.6104 7.92073C93.3604 7.21667 93.2354 6.50003 93.2354 5.75825C93.2354 5.00389 93.3666 4.28725 93.6354 3.59576C93.8979 2.8917 94.2729 2.28193 94.7604 1.76016C95.2604 1.22583 95.8416 0.79836 96.5104 0.477758C97.1729 0.163444 97.9104 0 98.7104 0C99.5229 0 100.267 0.16973 100.935 0.502904C101.598 0.842363 102.167 1.2824 102.635 1.8356C103.117 2.37622 103.485 2.99228 103.735 3.69634C103.998 4.38784 104.135 5.09819 104.135 5.83368C104.135 6.58804 103.992 7.31096 103.71 7.99617C103.442 8.68766 103.067 9.29743 102.585 9.83177C102.098 10.3535 101.523 10.781 100.86 11.1142C100.192 11.4348 99.4604 11.5919 98.6604 11.5919ZM96.3854 5.78339C96.3854 6.17314 96.4229 6.55032 96.5104 6.91492C96.6104 7.26696 96.7479 7.58756 96.9354 7.87044C97.1354 8.15961 97.3729 8.38592 97.6604 8.54936C97.9604 8.71909 98.2979 8.80081 98.6854 8.80081C99.0854 8.80081 99.4229 8.71909 99.7104 8.54936C99.9916 8.36706 100.223 8.13447 100.41 7.8453C100.592 7.56241 100.723 7.24181 100.81 6.88978C100.91 6.52517 100.96 6.148 100.96 5.75825C100.96 5.37478 100.91 5.00389 100.81 4.65186C100.71 4.28725 100.567 3.96665 100.385 3.69634C100.198 3.43232 99.9604 3.2123 99.6604 3.04257C99.3729 2.87912 99.0416 2.79112 98.6604 2.79112C98.2729 2.79112 97.9416 2.87912 97.6604 3.04257C97.3729 3.2123 97.1354 3.4386 96.9354 3.72149C96.7479 4.01066 96.6104 4.33754 96.5104 4.70215C96.4229 5.05418 96.3854 5.41879 96.3854 5.78339Z" fill="#1E1E1E"/>
<path d="M118.263 11.4914V0.0754395H123.163C123.713 0.0754395 124.219 0.194879 124.688 0.427472C125.15 0.647493 125.55 0.942947 125.888 1.30755C126.238 1.67845 126.5 2.10591 126.688 2.58996C126.888 3.06143 126.988 3.53919 126.988 4.02323C126.988 4.52614 126.894 5.02275 126.713 5.5068C126.525 5.97827 126.269 6.39945 125.938 6.76406C125.619 7.13495 125.225 7.4304 124.763 7.64414C124.294 7.86416 123.788 7.97103 123.238 7.97103H121.388V11.4914H118.263ZM121.388 5.25535H123.038C123.219 5.25535 123.394 5.17363 123.563 5.0039C123.725 4.82159 123.813 4.49471 123.813 4.02323C123.813 3.55805 123.713 3.23745 123.513 3.06772C123.325 2.88541 123.144 2.79112 122.963 2.79112H121.388V5.25535Z" fill="#1E1E1E"/>
<path d="M140.979 11.4914V0.0754395H146.204C146.754 0.0754395 147.261 0.194879 147.729 0.427472C148.192 0.647493 148.592 0.942947 148.929 1.30755C149.279 1.67845 149.542 2.10591 149.729 2.58996C149.929 3.06143 150.029 3.53919 150.029 4.02323C150.029 4.69587 149.879 5.31821 149.579 5.88398C149.292 6.45603 148.892 6.9275 148.379 7.29211L150.954 11.4914H147.429L145.279 7.97103H144.104V11.4914H140.979ZM144.104 5.25535H146.079C146.261 5.25535 146.436 5.14848 146.604 4.92846C146.767 4.71473 146.854 4.41298 146.854 4.02323C146.854 3.62091 146.754 3.31917 146.554 3.11801C146.367 2.90427 146.179 2.79112 145.979 2.79112H144.104V5.25535Z" fill="#1E1E1E"/>
<path d="M164.751 11.4914V0.0754395H167.876V11.4914H164.751Z" fill="#1E1E1E"/>
<path d="M181.521 11.4914L185.746 0.0754395H188.296L192.521 11.4914H189.221L188.521 9.25343H185.496L184.821 11.4914H181.521ZM187.021 3.34431L185.971 7.16638H188.021L187.021 3.34431Z" fill="#1E1E1E"/>
<path d="M215.002 2.79112H211.727V11.4914H208.627V2.79112H205.327V0.0754395H215.002V2.79112Z" fill="#1E1E1E"/>
<path d="M237.033 8.75053V11.4914H228.933V0.0754395H236.883V2.79112H232.058V4.40041H236.183V6.96522H232.058V8.75053H237.033Z" fill="#1E1E1E"/>
</svg>
